<svg width="619" height="536" viewBox="0 0 619 536" fill="none" xmlns="http://www.w3.org/2000/svg">
<path d="M88.758 490.62C207.101 551.126 398.975 551.127 517.316 490.621C635.66 430.115 635.66 332.016 517.316 271.511C398.973 211.004 207.1 211.004 88.757 271.509C-29.5858 332.015 -29.5858 430.115 88.758 490.62" fill="#F2F2F0"/>
<path d="M475.793 393.959C482.28 397.703 495.025 396.415 504.264 391.08L557.51 360.156C566.749 354.821 568.969 347.456 562.469 343.704C555.969 339.952 543.214 341.237 533.978 346.575L480.773 377.513C471.537 382.852 469.308 390.215 475.793 393.959" fill="#E7E7E5"/>
<path d="M155.234 422.477L101.073 391.207L155.234 359.937V422.477Z" fill="#E7E7E5"/>
<path d="M308.311 441.186L221.018 390.753L308.332 340.42L308.311 441.186Z" fill="#E7E7E5"/>
<path d="M81.967 349.365C82.1186 336.697 73.2711 310.347 60.3238 293.74C47.3752 277.133 26.8524 264.857 12.1102 269.704C-1.62002 274.216 -0.354922 292.173 16.093 304.26C32.541 316.347 57.2992 331.58 64.3476 352.216L79.3528 377.613L81.967 349.365" fill="#32A3DC"/>
<path d="M73.9976 368.549L64.3476 352.216C57.2992 331.58 32.5409 316.347 16.0929 304.26C7.14611 297.685 2.69193 289.375 2.69923 282.435C2.70548 276.616 5.84819 271.761 12.1102 269.704C14.3205 268.977 16.6585 268.635 19.0847 268.635C32.8347 268.635 49.3175 279.624 60.3237 293.74C65.7085 300.647 70.3841 309.239 73.9976 317.831V368.549Z" fill="#32A3DC"/>
<path d="M82.6935 366.711C82.2899 366.673 81.9446 366.372 81.8686 365.956C73.9055 322.611 39.3451 287.04 18.4998 279.023C18.0232 278.839 17.7847 278.303 17.968 277.827C18.1498 277.352 18.6752 277.103 19.1638 277.295C40.406 285.464 75.6055 321.619 83.6888 365.621C83.781 366.124 83.4487 366.605 82.9467 366.699L82.6935 366.711" fill="white"/>
<path d="M75.9114 394.315C73.962 387.169 65.4052 375.313 51.4541 365.436C36.0202 354.511 16.3854 349.337 11.9463 340.925C6.61301 330.819 15.1896 321.435 31.1521 323.609C47.1136 325.784 74.9578 347.932 79.0562 380.824L75.9114 394.315" fill="#32A3DC"/>
<path d="M79.0949 386.879C78.7439 386.845 78.4283 386.613 78.3043 386.257C65.4887 349.051 37.3793 335.708 24.3085 333.851C23.8023 333.78 23.4501 333.311 23.522 332.804C23.5928 332.296 24.0419 331.944 24.5679 332.017C39.0225 334.071 66.9736 347.677 80.0559 385.655C80.2215 386.137 79.9637 386.665 79.4813 386.831C79.3532 386.876 79.2215 386.891 79.0949 386.879" fill="white"/>
<path d="M554.719 313.308C554.719 313.308 556.496 286.599 572.235 266.772C587.975 246.947 587.007 238.781 576.155 234.78C565.303 230.777 540.095 254.672 545.704 286.669C551.313 318.668 554.719 313.308 554.719 313.308" fill="#32A3DC"/>
<path d="M554.094 313.645C552.871 313.645 549.906 310.637 545.704 286.669C545.156 283.543 544.902 280.495 544.9 277.541C544.886 252.495 563 234.341 573.542 234.341C574.478 234.341 575.356 234.485 576.155 234.78C581.274 236.667 584.194 239.481 584.198 244.008C584.203 249.079 580.551 256.297 572.235 266.772C556.496 286.599 554.719 313.308 554.719 313.308C554.719 313.308 554.504 313.645 554.094 313.645Z" fill="#32A3DC"/>
<path d="M549.91 298.052C549.584 298.052 549.312 297.799 549.29 297.471C547.453 268.059 568.225 243.925 576 238.464C576.277 238.268 576.666 238.335 576.862 238.616C577.061 238.896 576.993 239.281 576.712 239.48C569.089 244.835 548.724 268.508 550.529 297.393C550.552 297.733 550.29 298.028 549.949 298.051L549.91 298.052" fill="white"/>
<path d="M550.44 335.363C550.44 335.363 559.926 338.649 572.114 340.58C584.302 342.509 589.68 336.68 589.68 336.68C589.68 336.68 584.882 325.249 577.959 322.041C577.959 322.041 589.695 324.433 599.114 330.719C599.114 330.719 606.556 330.832 609.518 319.472C609.518 319.472 605.108 312.636 590.314 308.944C590.314 308.944 599.315 306.679 612.287 309.987C613.259 310.373 617.404 295.687 618.659 288.911C619.912 282.136 617.19 282.207 611.907 280.796C606.624 279.387 589.13 275.456 585.823 278.361C582.515 281.267 580.836 291.201 580.836 291.201C580.836 291.201 578.658 285.34 580.34 278.611C580.34 278.611 575.586 276.752 568.21 278.899C562.176 280.653 561.882 284.76 562.155 289.4C562.354 292.792 563.172 296.407 564.767 301.181C564.767 301.181 560.063 295.152 559.918 282.083C559.918 282.083 547.57 288.216 545.46 300.472C544.322 307.096 542.706 326.559 550.44 335.363" fill="#32A3DC"/>
<path d="M552.769 332.98C553.023 332.98 553.268 332.836 553.386 332.592C563.221 312.157 599.788 288.413 612.886 285.867C613.257 285.793 613.501 285.433 613.429 285.063C613.356 284.689 612.993 284.452 612.624 284.52C599.311 287.109 562.143 311.236 552.152 331.997C551.987 332.339 552.129 332.748 552.47 332.911L552.769 332.98" fill="white"/>
<path d="M77.1939 403.761C75.6814 403.761 74.7783 402.512 74.7783 400.42V176.141L349.438 17.5667L349.439 240.943C349.439 244.371 347.023 248.553 344.055 250.268L79.3819 403.077C78.607 403.525 77.8497 403.761 77.1939 403.761" fill="#FAF9F9"/>
<path d="M350.217 16.216L73.998 175.691V400.42C73.998 403.031 75.2991 404.541 77.1928 404.541C77.9699 404.541 78.845 404.286 79.7715 403.753L344.446 250.943C347.634 249.101 350.219 244.624 350.219 240.943L350.217 16.216ZM348.657 18.916L348.659 240.943C348.659 244.068 346.372 248.029 343.665 249.592L78.9919 402.401C78.3356 402.781 77.7132 402.981 77.1928 402.981C75.7174 402.981 75.5586 401.189 75.5586 400.42V176.592L348.657 18.916" fill="#D9DAD7"/>
<path d="M73.998 175.691V213.216L350.215 53.7427L350.217 16.2161L73.998 175.691Z" fill="#32A3DC"/>
<path d="M95.6611 177.693L95.6617 183.075C95.6617 184.175 96.4419 184.624 97.3939 184.075L182.318 135.044V125.663L97.3929 174.693C96.4403 175.244 95.6611 176.593 95.6611 177.693" fill="#FAF9F9"/>
<path d="M191.419 120.408C192.375 119.856 193.151 120.304 193.151 121.408V126.789C193.151 127.895 192.375 129.237 191.419 129.789L182.317 135.044V125.663L191.419 120.408Z" fill="#3C515C"/>
<path d="M73.998 163.595C73.998 159.913 76.5825 155.436 79.7715 153.595L344.442 0.788015C347.63 -1.05332 350.217 0.438682 350.217 4.12135V16.216L73.998 175.691V163.595Z" fill="#3C515C"/>
<path d="M319.518 21.4574C318.023 22.3214 316.81 24.4214 316.81 26.1481C316.81 27.8748 318.023 28.5761 319.518 27.7121C321.014 26.8481 322.227 24.7494 322.227 23.0214C322.227 21.2934 321.014 20.5934 319.518 21.4574Z" fill="#32A3DC"/>
<path d="M328.098 16.4973C326.602 17.3613 325.39 19.4612 325.39 21.1879C325.39 22.9159 326.602 23.6159 328.098 22.7519C329.592 21.8892 330.806 19.7879 330.806 18.0613C330.806 16.3333 329.592 15.6333 328.098 16.4973Z" fill="#32A3DC"/>
<path d="M336.676 11.5374C335.18 12.4001 333.968 14.5014 333.968 16.228C333.968 17.9547 335.18 18.6547 336.676 17.792C338.172 16.928 339.384 14.8281 339.384 13.1014C339.384 11.3734 338.172 10.6734 336.676 11.5374Z" fill="#32A3DC"/>
<path d="M260.915 92.6572C258.973 92.6572 257.639 91.1079 257.639 88.4292C257.639 84.6546 260.289 80.0639 263.559 78.1759C264.508 77.6266 265.407 77.3666 266.203 77.3666C268.144 77.3666 269.479 78.9159 269.479 81.5946C269.479 85.3692 266.828 89.9613 263.559 91.8479C262.608 92.3973 261.711 92.6572 260.915 92.6572Z" fill="#52C3A2"/>
<path d="M233.835 108.292C231.894 108.292 230.561 106.743 230.561 104.064C230.561 100.289 233.21 95.6973 236.479 93.8107C237.43 93.2613 238.327 93.0027 239.123 93.0027C241.065 93.0027 242.399 94.5507 242.399 97.2293C242.399 101.005 239.749 105.596 236.479 107.483C235.529 108.032 234.631 108.292 233.835 108.292Z" fill="#52C3A2"/>
<path d="M287.995 77.0215C286.053 77.0215 284.719 75.4735 284.719 72.7948C284.719 69.0188 287.369 64.4282 290.639 62.5402C291.589 61.9922 292.487 61.7322 293.281 61.7322C295.224 61.7322 296.559 63.2815 296.559 65.9602C296.559 69.7362 293.908 74.3268 290.639 76.2135C289.689 76.7615 288.791 77.0215 287.995 77.0215" fill="#52C3A2"/>
<path d="M315.076 61.3574C313.133 61.3574 311.8 59.8081 311.8 57.1294C311.8 53.3548 314.45 48.7628 317.72 46.8761C318.669 46.3268 319.568 46.0668 320.364 46.0668C322.305 46.0668 323.638 47.6161 323.638 50.2948C323.638 54.0694 320.989 58.6614 317.72 60.5481C316.769 61.0974 315.872 61.3574 315.076 61.3574Z" fill="#52C3A2"/>
<path d="M101.435 216.139L165.712 179.028C168.901 177.187 171.485 178.679 171.485 182.361V244.075C171.485 247.756 168.901 252.233 165.712 254.075L101.436 291.185C98.2481 293.027 95.6627 291.535 95.6627 287.853L95.6611 226.139C95.6611 222.456 98.2461 217.98 101.435 216.139" fill="#D9DAD7"/>
<path d="M193.514 162.98L328.195 85.216C331.383 83.376 333.968 84.868 333.968 88.5493V150.264C333.968 153.945 331.384 158.423 328.195 160.264L193.515 238.027C190.326 239.868 187.742 238.376 187.742 234.693L187.74 172.98C187.74 169.297 190.324 164.82 193.514 162.98Z" fill="#D9DAD7"/>
<path d="M101.437 309.947L203.625 250.948C206.814 249.107 209.399 250.415 209.399 253.868C209.399 257.321 206.815 261.613 203.627 263.455L101.437 322.455C98.2475 324.295 95.6631 322.988 95.6631 319.535C95.6631 316.08 98.2475 311.788 101.437 309.947" fill="#D9DAD7"/>
<path d="M101.437 331.832L203.625 272.833C206.814 270.992 209.399 272.3 209.399 275.753C209.399 279.207 206.815 283.5 203.627 285.341L101.437 344.34C98.2475 346.181 95.6631 344.873 95.6631 341.42C95.6631 337.965 98.2475 333.673 101.437 331.832" fill="#D9DAD7"/>
<path d="M101.437 353.719L203.625 294.719C206.814 292.877 209.399 294.185 209.399 297.64C209.399 301.093 206.815 305.385 203.627 307.227L101.437 366.227C98.2475 368.067 95.6631 366.759 95.6631 363.305C95.6631 359.852 98.2475 355.56 101.437 353.719" fill="#D9DAD7"/>
<path d="M149.823 279.507C149.823 277.297 151.374 274.611 153.287 273.507L330.502 171.192C332.414 170.088 335.515 170.087 337.43 171.192L341.334 173.445C343.247 174.551 344.798 177.236 344.798 179.445V315.284C344.798 317.484 343.239 320.184 341.335 321.284L164.121 423.598C162.214 424.698 159.097 424.698 157.191 423.598L153.287 421.344C151.382 420.244 149.823 417.544 149.823 415.344V279.507Z" fill="#32A3DC"/>
<path d="M150.834 276.096L150.833 276.095C151.289 275.301 151.877 274.58 152.54 274.031C151.881 274.577 151.294 275.3 150.834 276.096ZM342.193 174.067C341.918 173.827 341.629 173.617 341.333 173.445L339.969 172.659L341.338 173.443C341.632 173.616 341.92 173.827 342.193 174.067ZM332.348 170.521C332.87 170.415 333.417 170.363 333.964 170.363C334.41 170.363 334.858 170.397 335.292 170.468C334.858 170.399 334.412 170.363 333.965 170.363C333.418 170.363 332.87 170.416 332.348 170.521Z" fill="#FCFCFC"/>
<path d="M160.666 281.764L150.835 276.096C151.295 275.3 151.882 274.577 152.54 274.031C152.782 273.831 153.034 273.654 153.291 273.506L330.507 171.197C331.042 170.884 331.675 170.657 332.348 170.521C332.871 170.416 333.419 170.363 333.966 170.363C334.412 170.363 334.859 170.399 335.292 170.468C336.074 170.596 336.811 170.839 337.422 171.197L339.97 172.659L341.334 173.446C341.63 173.618 341.919 173.827 342.194 174.067C342.804 174.601 343.351 175.285 343.782 176.032L160.666 281.764Z" fill="#93C1D8"/>
<path d="M151.757 420.047C150.608 418.735 149.817 416.916 149.817 415.34V363.312L149.823 363.308V415.344C149.823 416.912 150.613 418.732 151.757 420.047Z" fill="#CACBC9"/>
<path d="M149.817 361.511V338.293L149.823 338.289V361.507L149.817 361.511Z" fill="#DADBD8"/>
<path d="M149.817 363.312V361.511L149.823 361.507V363.308L149.817 363.312Z" fill="#BFC0BE"/>
<path d="M149.817 325.785V316.407L149.823 316.404V325.781L149.817 325.785ZM149.817 303.899V294.521L149.823 294.519V303.896L149.817 303.899ZM149.817 282.013V279.503C149.817 278.405 150.211 277.176 150.833 276.095L150.835 276.096C150.209 277.18 149.823 278.403 149.823 279.507V282.011L149.817 282.013Z" fill="#DADBD8"/>
<path d="M149.817 294.521V282.013L149.823 282.011V294.519L149.817 294.521Z" fill="#BFC0BE"/>
<path d="M149.817 316.407V303.899L149.823 303.896V316.404L149.817 316.407Z" fill="#BFC0BE"/>
<path d="M149.817 338.293V325.785L149.823 325.781V338.289L149.817 338.293Z" fill="#BFC0BE"/>
<path d="M160.637 424.419C160.277 424.419 159.919 424.397 159.569 424.352C159.061 424.287 158.585 424.172 158.143 424.026C157.798 423.911 157.487 423.763 157.193 423.599L153.291 421.338C152.741 421.023 152.221 420.576 151.758 420.047C150.614 418.732 149.823 416.912 149.823 415.344V363.308V361.507V338.289V325.781V316.404V303.896V294.519V282.011V279.507C149.823 278.403 150.21 277.18 150.835 276.096L160.666 281.764L162.469 282.813C161.387 283.256 160.666 284.337 160.666 285.763V421.599C160.666 422.747 161.075 423.533 161.731 423.877C161.977 424 162.251 424.067 162.551 424.067C162.811 424.067 163.09 424.016 163.386 423.911C163.255 423.976 163.125 424.026 162.977 424.074C162.763 424.14 162.534 424.205 162.305 424.255C161.765 424.364 161.199 424.419 160.637 424.419" fill="#32A3DC"/>
<path d="M343.978 176.388C343.975 176.383 343.972 176.376 343.97 176.371L344.436 175.655L343.978 176.388Z" fill="#BDBFBD"/>
<path d="M161.73 423.877C161.074 423.533 160.665 422.747 160.665 421.599V419.339L230.916 312.772L160.665 281.764L242.734 312.425C244.261 312.995 245.837 313.267 247.393 313.267C251.8 313.267 256.045 311.077 258.564 307.215L271.744 287.024L343.969 176.371C343.972 176.376 343.974 176.383 343.977 176.388L274.37 287.783L344.796 315.343C344.78 316.457 344.37 317.703 343.714 318.8L274.174 288.096L258.86 312.605C256.349 316.611 252.017 318.877 247.54 318.877C245.733 318.877 243.904 318.508 242.161 317.735L231.256 312.923L161.73 423.877" fill="#43BE98"/>
<path d="M306.888 125.816V437.688C306.888 441.369 309.473 442.862 312.662 441.021L452.766 360.133C455.953 358.292 458.54 353.815 458.54 350.133V38.2613C458.54 34.58 455.953 33.088 452.766 34.928L312.662 115.816C309.473 117.657 306.888 122.135 306.888 125.816Z" fill="#FAF9F9"/>
<path d="M306.888 125.816H306.108V437.688C306.11 439.12 306.463 440.331 307.167 441.214C307.864 442.102 308.93 442.597 310.084 442.589C311.031 442.588 312.035 442.284 313.052 441.696L453.156 360.808C454.907 359.793 456.42 358.12 457.524 356.213C458.624 354.304 459.316 352.156 459.32 350.133V38.2613C459.32 36.8306 458.966 35.6186 458.262 34.7346C457.564 33.848 456.499 33.352 455.344 33.36C454.398 33.3613 453.394 33.6666 452.376 34.2533L312.272 115.141C310.522 116.156 309.008 117.829 307.904 119.736C306.804 121.647 306.112 123.793 306.108 125.816H306.888H307.668C307.664 124.157 308.264 122.227 309.255 120.516C310.24 118.804 311.614 117.319 313.052 116.492L453.156 35.604C453.992 35.1213 454.74 34.9186 455.344 34.92C456.086 34.928 456.618 35.1866 457.043 35.708C457.464 36.232 457.76 37.0826 457.76 38.2613V350.133C457.764 351.792 457.163 353.724 456.174 355.433C455.188 357.145 453.815 358.631 452.376 359.457L312.272 440.345C311.436 440.828 310.688 441.031 310.084 441.029C309.343 441.021 308.811 440.762 308.386 440.241C307.964 439.717 307.668 438.868 307.668 437.688V125.816H306.888" fill="#D9DAD7"/>
<path d="M315.008 131.628C315.008 130.764 315.678 129.676 316.508 129.197L332.468 119.987C333.297 119.508 333.969 119.82 333.969 120.683C333.968 121.547 333.296 122.635 332.466 123.113L316.508 132.325C315.678 132.804 315.008 132.491 315.008 131.628Z" fill="#3C515C"/>
<path d="M315.008 137.839C315.008 136.975 315.678 135.887 316.508 135.408L332.468 126.197C333.297 125.719 333.969 126.031 333.969 126.895C333.968 127.757 333.296 128.845 332.466 129.324L316.508 138.536C315.678 139.013 315.008 138.703 315.008 137.839Z" fill="#3C515C"/>
<path d="M315.008 144.049C315.008 143.185 315.678 142.097 316.508 141.619L332.468 132.408C333.297 131.929 333.969 132.241 333.969 133.105C333.968 133.968 333.296 135.056 332.466 135.535L316.508 144.747C315.678 145.225 315.008 144.913 315.008 144.049Z" fill="#3C515C"/>
<path d="M439.273 71.9093C437.259 73.072 435.627 72.1293 435.627 69.8053C435.627 67.4813 437.259 64.656 439.273 63.4946C441.285 62.332 442.915 63.2747 442.915 65.5973C442.915 67.9213 441.285 70.7467 439.273 71.9093ZM447.706 64.0773V61.5866C447.706 61.4386 447.597 61.3666 447.461 61.428L445.541 62.2933C445.405 62.3546 445.266 62.288 445.222 62.1453C445.11 61.7933 444.965 61.476 444.793 61.1933C444.715 61.0666 444.698 60.8613 444.765 60.728L446.043 58.148C446.11 58.0147 446.059 57.848 445.93 57.7733L444.542 56.9707C444.413 56.8973 444.241 56.9373 444.159 57.0613L442.563 59.46C442.482 59.5826 442.295 59.6707 442.147 59.6667C441.817 59.6573 441.47 59.692 441.109 59.772C440.963 59.804 440.837 59.716 440.821 59.5693L440.611 57.4733C440.595 57.3253 440.479 57.2653 440.35 57.34L438.193 58.5853C438.065 58.66 437.95 58.84 437.937 58.988L437.721 61.388C437.707 61.536 437.606 61.736 437.497 61.836C437.075 62.2227 436.675 62.648 436.298 63.104C436.203 63.2187 436.014 63.2733 435.874 63.224L434.49 62.7413C434.349 62.692 434.174 62.7573 434.101 62.8853L432.515 65.632C432.441 65.76 432.471 65.944 432.585 66.04L433.695 66.9973C433.809 67.0947 433.855 67.2853 433.803 67.424C433.598 67.98 433.429 68.54 433.305 69.096C433.273 69.2413 433.15 69.4293 433.029 69.5147L431.058 70.9027C430.937 70.9867 430.838 71.1773 430.838 71.3253V73.816C430.838 73.9653 430.949 74.036 431.083 73.9747L433.003 73.1093C433.138 73.048 433.278 73.116 433.323 73.2573C433.434 73.6106 433.578 73.928 433.75 74.2093C433.829 74.336 433.845 74.5413 433.781 74.6747L432.501 77.2546C432.434 77.388 432.485 77.556 432.614 77.6306L434.003 78.432C434.131 78.5053 434.302 78.4667 434.385 78.3427L435.979 75.944C436.062 75.82 436.247 75.7333 436.397 75.7373C436.727 75.7453 437.073 75.7107 437.435 75.632C437.579 75.6 437.709 75.6867 437.723 75.8333L437.934 77.9293C437.949 78.0773 438.065 78.1373 438.193 78.064L440.35 76.8173C440.479 76.7426 440.594 76.564 440.607 76.4147L440.823 74.0147C440.838 73.8667 440.939 73.6667 441.049 73.5667C441.467 73.1813 441.869 72.7547 442.246 72.2987C442.341 72.184 442.529 72.1293 442.67 72.1787L444.054 72.6626C444.194 72.7106 444.369 72.6466 444.443 72.5173L446.029 69.772C446.103 69.6427 446.071 69.46 445.959 69.3626L444.847 68.4053C444.735 68.3093 444.689 68.1173 444.739 67.9787C444.947 67.424 445.115 66.864 445.239 66.3067C445.273 66.1613 445.394 65.9733 445.515 65.888L447.486 64.5013C447.607 64.416 447.706 64.2267 447.706 64.0773" fill="#2E3E47"/>
<path d="M382.715 125.544C399.084 116.092 412.355 123.755 412.355 142.656C412.355 161.56 399.084 184.544 382.715 193.997C366.343 203.448 353.072 195.787 353.072 176.883C353.072 157.981 366.343 134.995 382.715 125.544Z" fill="#3C515C"/>
<path d="M382.507 140.42C387.816 137.353 392.122 139.84 392.122 145.972C392.122 152.104 387.816 159.561 382.507 162.628C377.195 165.693 372.89 163.208 372.89 157.076C372.89 150.943 377.195 143.485 382.507 140.42Z" fill="#32A3DC"/>
<path d="M401.456 173.12C401.456 163.044 394.383 158.96 385.659 163.999L380.204 167.148C371.48 172.184 364.405 184.436 364.405 194.511V197.259C365.98 197.783 367.689 198.041 369.499 198.045C373.477 198.053 377.957 196.743 382.715 193.997C389.827 189.891 396.349 183.227 401.456 175.456V173.12Z" fill="#32A3DC"/>
<path d="M355.959 222.121L409.468 191.229C411.063 190.308 412.355 190.961 412.355 192.689C412.355 194.416 411.063 196.563 409.468 197.483L355.959 228.376C354.366 229.296 353.072 228.643 353.072 226.916C353.072 225.188 354.366 223.043 355.959 222.121" fill="#32A3DC"/>
<path d="M350.218 244.219L415.211 206.655C416.804 205.733 418.098 206.388 418.098 208.115C418.098 209.841 416.804 211.988 415.211 212.908L350.218 250.472C348.623 251.393 347.331 250.739 347.331 249.012C347.331 247.285 348.623 245.139 350.218 244.219Z" fill="#3C515C"/>
<path d="M416.944 236.936L435.142 226.427C436.099 225.875 436.874 226.127 436.874 226.991C436.874 227.855 436.099 229.003 435.142 229.555L416.944 240.063C415.987 240.615 415.211 240.363 415.211 239.499C415.211 238.636 415.987 237.488 416.944 236.936Z" fill="#2E3E47"/>
<path d="M326.024 283.183L352.747 267.755C354.342 266.833 355.634 267.58 355.634 269.421V287.769C355.634 289.611 354.343 291.849 352.747 292.769L326.024 308.199C324.431 309.119 323.138 308.372 323.138 306.532V288.183C323.138 286.341 324.431 284.103 326.024 283.183Z" fill="#32A3DC"/>
<path d="M330.285 285.747L348.485 275.239C349.443 274.687 350.217 274.939 350.217 275.803C350.217 276.667 349.443 277.815 348.485 278.367L330.285 288.875C329.331 289.427 328.555 289.175 328.555 288.311C328.555 287.448 329.331 286.3 330.285 285.747Z" fill="#FAF9F9"/>
<path d="M328.555 295.001V300.381C328.555 301.485 329.331 301.933 330.285 301.381L348.485 290.873C349.443 290.321 350.217 288.979 350.217 287.873L350.219 282.493C350.219 281.388 349.443 280.94 348.487 281.493L330.285 292.001C329.331 292.553 328.555 293.897 328.555 295.001" fill="#FAF9F9"/>
<path d="M369.352 258.167L396.075 242.739C397.67 241.819 398.962 242.564 398.962 244.405V262.755C398.962 264.595 397.67 266.833 396.075 267.755L369.352 283.183C367.758 284.103 366.466 283.357 366.466 281.516V263.167C366.466 261.327 367.758 259.088 369.352 258.167Z" fill="#32A3DC"/>
<path d="M373.615 260.732L391.813 250.224C392.769 249.672 393.545 249.924 393.545 250.787C393.545 251.651 392.769 252.799 391.813 253.352L373.615 263.859C372.657 264.412 371.883 264.159 371.883 263.296C371.883 262.432 372.657 261.285 373.615 260.732" fill="#FAF9F9"/>
<path d="M371.883 269.987V275.367C371.883 276.471 372.657 276.919 373.615 276.367L391.813 265.859C392.769 265.307 393.545 263.963 393.545 262.859V257.477C393.547 256.373 392.771 255.925 391.813 256.477L373.615 266.985C372.657 267.539 371.883 268.881 371.883 269.987" fill="#FAF9F9"/>
<path d="M412.68 233.151L439.402 217.723C440.997 216.801 442.289 217.548 442.289 219.389V237.737C442.289 239.579 440.998 241.817 439.402 242.737L412.68 258.167C411.086 259.087 409.793 258.341 409.793 256.5V238.151C409.793 236.309 411.086 234.071 412.68 233.151Z" fill="#32A3DC"/>
<path d="M416.943 235.716L435.142 225.207C436.099 224.655 436.874 224.907 436.874 225.771C436.874 226.635 436.099 227.783 435.142 228.335L416.943 238.843C415.987 239.395 415.211 239.143 415.211 238.28C415.211 237.416 415.987 236.268 416.943 235.716" fill="#FAF9F9"/>
<path d="M415.211 244.969V250.349C415.211 251.455 415.987 251.903 416.943 251.349L435.142 240.843C436.099 240.289 436.874 238.947 436.874 237.843L436.875 232.461C436.875 231.356 436.099 230.909 435.143 231.461L416.943 241.969C415.987 242.521 415.211 243.865 415.211 244.969" fill="#FAF9F9"/>
<path d="M328.911 325.293L436.516 263.167C439.706 261.325 442.291 262.633 442.291 266.088C442.291 269.541 439.706 273.833 436.516 275.675L328.911 337.801C325.723 339.641 323.138 338.335 323.138 334.88C323.138 331.425 325.723 327.133 328.911 325.293Z" fill="#D9DAD7"/>
<path d="M328.911 350.309L436.516 288.183C439.706 286.341 442.291 287.649 442.291 291.103C442.291 294.557 439.706 298.849 436.516 300.691L328.911 362.816C325.723 364.657 323.138 363.349 323.138 359.896C323.138 356.443 325.723 352.149 328.911 350.309Z" fill="#D9DAD7"/>
<path d="M363.937 361.356L401.491 339.675C403.085 338.753 404.377 339.5 404.377 341.341L404.379 353.436C404.379 355.277 403.085 357.515 401.492 358.436L363.937 380.119C362.343 381.039 361.051 380.292 361.051 378.452V366.356C361.051 364.515 362.343 362.277 363.937 361.356" fill="#32A3DC"/>
<path d="M331.262 327.131C329.767 327.993 328.554 330.093 328.554 331.821C328.554 333.548 329.767 334.248 331.262 333.385C332.758 332.521 333.97 330.421 333.97 328.695C333.97 326.967 332.758 326.267 331.262 327.131Z" fill="#FAF9F9"/>
<path d="M339.841 322.171C338.344 323.033 337.132 325.133 337.132 326.861C337.132 328.588 338.344 329.288 339.841 328.425C341.336 327.561 342.549 325.461 342.549 323.733C342.549 322.007 341.336 321.307 339.841 322.171Z" fill="#FAF9F9"/>
<path d="M348.42 317.209C346.924 318.073 345.712 320.173 345.712 321.9C345.712 323.628 346.924 324.328 348.42 323.465C349.915 322.601 351.127 320.501 351.127 318.773C351.127 317.047 349.915 316.347 348.42 317.209Z" fill="#FAF9F9"/>
<path d="M356.998 312.249C355.504 313.113 354.289 315.213 354.289 316.941C354.289 318.668 355.504 319.368 356.998 318.505C358.494 317.641 359.706 315.541 359.706 313.815C359.706 312.087 358.494 311.387 356.998 312.249Z" fill="#FAF9F9"/>
<path d="M365.577 307.289C364.081 308.153 362.869 310.253 362.869 311.981C362.869 313.708 364.081 314.408 365.577 313.544C367.072 312.681 368.286 310.581 368.286 308.853C368.286 307.127 367.072 306.425 365.577 307.289Z" fill="#FAF9F9"/>
<path d="M374.157 302.329C372.661 303.193 371.449 305.293 371.449 307.02C371.449 308.748 372.661 309.448 374.157 308.584C375.652 307.721 376.864 305.62 376.864 303.893C376.864 302.167 375.652 301.465 374.157 302.329Z" fill="#FAF9F9"/>
<path d="M382.735 297.369C381.24 298.232 380.028 300.333 380.028 302.06C380.028 303.787 381.24 304.487 382.735 303.624C384.231 302.76 385.444 300.66 385.444 298.933C385.444 297.205 384.231 296.505 382.735 297.369Z" fill="#FAF9F9"/>
<path d="M331.262 352.173C329.767 353.037 328.554 355.137 328.554 356.864C328.554 358.592 329.767 359.292 331.262 358.428C332.758 357.564 333.97 355.464 333.97 353.737C333.97 352.009 332.758 351.309 331.262 352.173Z" fill="#FAF9F9"/>
<path d="M339.841 347.213C338.344 348.076 337.132 350.176 337.132 351.904C337.132 353.631 338.344 354.332 339.841 353.468C341.336 352.604 342.549 350.504 342.549 348.777C342.549 347.049 341.336 346.349 339.841 347.213Z" fill="#FAF9F9"/>
<path d="M348.42 342.253C346.924 343.116 345.712 345.216 345.712 346.944C345.712 348.671 346.924 349.371 348.42 348.508C349.915 347.644 351.127 345.544 351.127 343.816C351.127 342.089 349.915 341.389 348.42 342.253Z" fill="#FAF9F9"/>
<path d="M356.998 337.292C355.504 338.156 354.289 340.256 354.289 341.983C354.289 343.711 355.504 344.411 356.998 343.548C358.494 342.684 359.706 340.584 359.706 338.856C359.706 337.129 358.494 336.429 356.998 337.292Z" fill="#FAF9F9"/>
<path d="M365.577 332.332C364.081 333.196 362.869 335.296 362.869 337.024C362.869 338.751 364.081 339.451 365.577 338.588C367.072 337.724 368.286 335.624 368.286 333.897C368.286 332.169 367.072 331.469 365.577 332.332Z" fill="#FAF9F9"/>
<path d="M374.157 327.372C372.661 328.236 371.449 330.336 371.449 332.064C371.449 333.791 372.661 334.491 374.157 333.627C375.652 332.764 376.864 330.664 376.864 328.936C376.864 327.209 375.652 326.509 374.157 327.372Z" fill="#FAF9F9"/>
<path d="M382.735 322.412C381.24 323.276 380.028 325.376 380.028 327.103C380.028 328.831 381.24 329.531 382.735 328.667C384.231 327.804 385.444 325.704 385.444 323.976C385.444 322.249 384.231 321.548 382.735 322.412Z" fill="#FAF9F9"/>
<path d="M530.615 288.937C527.251 288.937 523.697 290.627 521.512 291.888C506.285 300.68 493.419 324.295 493.419 343.456C493.419 351.211 495.595 357.097 499.237 359.201C503.385 361.595 509.147 358.981 512.212 357.213C527.44 348.421 540.304 324.807 540.304 305.647C540.304 297.891 538.129 292.004 534.487 289.9C533.295 289.213 531.969 288.937 530.615 288.937ZM503.065 378.783C498.389 378.783 493.953 377.629 489.936 375.311C480.328 369.763 474.817 358.152 474.817 343.456C474.817 317.613 491.243 287.884 512.212 275.779C523.503 269.261 534.715 268.553 543.787 273.791C553.397 279.339 558.907 290.949 558.907 305.647C558.907 331.489 542.481 361.217 521.512 373.323C515.221 376.955 508.953 378.783 503.065 378.783Z" fill="#3C515C"/>
<path d="M543.632 309.784C543.632 295.268 534.487 289.9 534.487 289.9C538.129 292.004 540.304 297.891 540.304 305.647C540.304 324.807 527.44 348.421 512.212 357.213C509.147 358.981 503.385 361.595 499.237 359.201C499.237 359.201 506.955 363.991 517.617 358.175C533.055 349.753 543.632 328.944 543.632 309.784" fill="#2E3E47"/>
<path d="M528.962 128.336C528.962 123.024 524.657 118.717 519.345 118.717C514.034 118.717 509.729 123.024 509.729 128.336V128.361V281.305C509.729 282.727 510.667 284.148 512.545 285.231C516.299 287.4 522.39 287.4 526.146 285.231C528.023 284.148 528.962 282.727 528.962 281.305V128.361H528.961L528.962 128.336Z" fill="#2E3E47"/>
<path d="M521.28 162.512C521.28 158.969 518.792 154.663 515.727 152.892C514.167 151.991 512.762 151.928 511.752 152.541L511.747 152.533L488.016 166.205L487.443 166.547L487.211 166.684C486.8 166.957 486.418 167.272 486.075 167.613C484.639 169.036 483.751 171.017 483.751 173.192C483.751 176.173 485.406 178.771 487.84 180.111C488.96 180.712 490.231 181.053 491.599 181.053C492.954 181.053 494.238 180.712 495.344 180.111C495.496 180.028 495.646 179.932 495.796 179.851L519.678 166.096L519.675 166.091C520.666 165.505 521.28 164.269 521.28 162.512" fill="#3C515C"/>
<path d="M521.281 200.813C521.281 197.271 518.793 192.964 515.727 191.192C514.167 190.292 512.762 190.228 511.753 190.843L511.747 190.835L483.935 206.807L483.361 207.148L483.127 207.285C482.718 207.559 482.335 207.873 481.994 208.215C480.558 209.637 479.67 211.62 479.67 213.793C479.67 216.773 481.323 219.371 483.757 220.712C484.878 221.313 486.15 221.655 487.517 221.655C488.871 221.655 490.157 221.313 491.263 220.712C491.414 220.629 491.565 220.535 491.715 220.452L519.678 204.397L519.675 204.391C520.666 203.805 521.281 202.569 521.281 200.813" fill="#3C515C"/>
</svg>
