<svg width="1050" height="856" viewBox="0 0 1050 856" fill="none" xmlns="http://www.w3.org/2000/svg">
<g id="6917 1" clip-path="url(#clip0)">
<g id="g10">
<g id="g12">
<g id="g14">
<path id="path16" d="M1082 882.568H-40V-33H1082V882.568Z" fill="#FDFFFF"/>
</g>
<g id="g18">
<path id="path20" d="M1057.14 854.304H-15.1376V-6.64766H1057.14V854.304Z" fill="#DCEAFF"/>
</g>
<g id="g22">
<path id="path24" d="M1057.14 551.306H-15.1376V854.304H1057.14V551.306" fill="#699DEE"/>
</g>
<g id="g26">
<path id="path28" d="M286.952 86.212L-15.1378 84.2426V48.9334C12.4976 41.7244 53.094 37.8012 95.155 57.0546C95.155 57.0546 175.158 48.5188 234.403 64.4502C273.905 75.0694 286.952 86.212 286.952 86.212" fill="#F8FCFF"/>
</g>
<g id="g30">
<path id="path32" d="M525.834 81.6739C525.834 71.49 534.096 63.2312 544.284 63.2312C554.477 63.2312 562.734 71.49 562.734 81.6739C562.734 91.8628 554.477 100.122 544.284 100.122C534.096 100.122 525.834 91.8628 525.834 81.6739Z" fill="#F8FCFF"/>
</g>
<g id="g34">
<path id="path36" d="M6.31726 158.481C6.31726 158.481 13.0162 144.36 29.0355 145.927C29.0355 145.927 52.2923 122.389 77.0929 142.788C77.0929 142.788 103.456 137.732 122.98 147.162C135.997 153.454 140.296 160.048 140.296 160.048L6.31726 158.481" fill="#F8FCFF"/>
</g>
<g id="g38">
<path id="path40" d="M606.125 143.669C606.125 143.669 615.068 127.623 636.439 129.404C636.439 129.404 667.47 102.664 700.557 125.838C700.557 125.838 735.728 120.096 761.78 130.81C779.148 137.958 784.882 145.45 784.882 145.45L606.125 143.669" fill="#F8FCFF"/>
</g>
<g id="g42">
<path id="path44" d="M1057.14 40.0335V74.1865L745.084 71.623C745.084 71.623 764.853 42.0453 812.144 45.3354C812.144 45.3354 880.819 -3.93607 954.011 38.7551C954.011 38.7551 1006.47 31.6097 1057.14 40.0335" fill="#F8FCFF"/>
</g>
<g id="g46">
<path id="path48" d="M58.797 504.461L487.908 491.51L994.969 464.78L494.41 548.747L58.797 504.461Z" fill="#F8FCFF"/>
</g>
<g id="g50">
<path id="path52" d="M429.392 89.4343C429.392 89.4343 338.546 81.1696 321.241 88.7903C303.935 96.4109 319.735 120.114 305.151 121.884C290.566 123.649 200.966 128.536 200.966 128.536L219.639 145.036L205.239 163.256C205.239 163.256 327.327 156.619 337.533 156.373C358.653 155.862 335.681 122.95 355.752 121.126C375.824 119.297 435.053 126.141 435.053 126.141L429.392 89.4343Z" fill="#8DC240"/>
</g>
<g id="g54">
<path id="path56" d="M466.658 309.728L424.802 70.3149C424.605 69.2052 425.347 68.1505 426.459 67.9555C427.568 67.7606 428.625 68.5004 428.822 69.6101L470.709 307.919C470.904 309.028 466.818 310.643 466.658 309.728Z" fill="#2B478B"/>
</g>
<path id="path58" d="M468.178 304.464L378.437 555.646L526.884 569.448L686.711 533.558L468.178 304.464Z" fill="#CDE0FB"/>
<path id="path60" d="M468.178 304.464L494.41 569.448L316.041 554.323L468.178 304.464Z" fill="#AFCDFB"/>
<g id="g62">
<path id="path64" d="M919.126 122.683C919.126 122.683 913.095 111.969 919.126 109.789C925.162 107.609 927.895 109.617 928.174 112.058C928.466 114.499 925.881 124.121 925.881 124.121L919.126 122.683" fill="#936B4F"/>
</g>
<g id="g66">
<path id="path68" d="M923.965 191.223C912.965 193.202 902.857 194.122 893.729 194.327C885.064 194.519 877.29 194.068 870.485 193.28C868.656 193.07 866.899 192.835 865.214 192.583C847.409 189.882 837.572 185.094 837.572 185.094C837.572 185.094 853.842 151.045 866.989 152.356C882.411 153.889 908.537 167.723 911.136 163.844C914.06 159.471 916.509 121.987 916.509 121.987C923.351 117.308 927.43 122.24 927.43 122.24C927.43 122.24 940.782 188.192 923.965 191.223" fill="#8DC240"/>
</g>
<g id="g70">
<path id="path72" d="M923.964 191.225C912.964 193.206 902.852 194.122 893.727 194.329C885.063 194.524 877.292 194.075 870.485 193.282C866.381 180.241 863.43 166.917 871.68 174.95C886.24 189.115 923.964 191.225 923.964 191.225" fill="#8DC240"/>
</g>
<g id="g74">
<path id="path76" d="M836.339 466.118C836.339 466.118 835.167 479.65 838.029 481.06L874.66 480.987C874.66 480.987 874.66 476.762 868.773 475.819C862.893 474.88 852.557 471.438 850.806 463.77C849.055 456.102 836.339 466.118 836.339 466.118" fill="#233862"/>
</g>
<g id="g78">
<path id="path80" d="M863.23 302.305C863.047 311.156 862.62 320.283 861.789 328.488C857.836 367.419 856.444 414.457 855.873 423.526C854.892 439.269 851.776 464.419 851.776 464.419C851.776 464.419 845.606 470.274 833.575 467.477C833.575 467.477 823.612 431.257 821.389 393.115C821.356 392.489 821.317 391.86 821.284 391.231C821.029 386.189 820.757 380.422 820.486 374.205C818.65 332.56 816.66 270.694 816.66 270.694L862.62 259.91C862.62 259.91 863.679 280.243 863.23 302.305" fill="#2A4E96"/>
</g>
<g id="g82">
<path id="path84" d="M820.484 374.206C818.646 332.561 816.658 270.698 816.658 270.698L862.62 259.909C862.62 259.909 829.378 359.409 820.484 374.206Z" fill="#233862"/>
</g>
<g id="g86">
<path id="path88" d="M746.851 263.382C746.851 263.382 739.37 272.18 738.698 274.616C738.025 277.052 736.827 285.835 737.47 288.475C738.108 291.115 743.084 281.114 744.892 280.047C746.7 278.981 743.532 284.027 744.151 284.865C744.775 285.708 748.342 281.923 749.736 280.642C751.125 279.361 750.988 272.463 752.665 268.385C754.336 264.308 746.851 263.382 746.851 263.382" fill="#936B4F"/>
</g>
<g id="g90">
<path id="path92" d="M745.094 450.735C745.094 450.735 738.576 456.682 739.849 460.907C741.117 465.133 747.003 467.948 747.799 473.116C748.589 478.28 751.776 481.095 754.635 481.095C757.499 481.095 768.277 481.095 768.277 481.095C768.277 481.095 770.385 477.461 765.299 476.367C760.208 475.273 758.289 469.203 758.612 463.567C758.926 457.932 758.13 450.42 758.13 450.42L747.317 447.915L745.094 450.735" fill="#233862"/>
</g>
<g id="g94">
<path id="path96" d="M855.379 271.642C855.379 271.642 812.351 363.667 789.456 404.046C766.56 444.424 759.397 455.695 759.397 455.695C759.397 455.695 746.285 450.527 745.088 447.006C745.088 447.006 753.844 369.054 769.181 350.051C777.849 339.313 788.022 307.092 788.5 295.819C788.972 284.551 799.025 257.656 799.025 257.656L855.379 271.642" fill="#2A4E96"/>
</g>
<g id="g98">
<path id="path100" d="M867.963 275.975C867.963 275.975 850.853 287.409 826.635 286.351C816.012 285.882 794.924 282.872 791.522 274.425C790.724 272.439 791.313 269.922 792.507 266.058C795.62 256.015 802.864 236.893 800.68 194.489C800.476 190.54 800.583 186.834 800.968 183.36C803.249 162.472 815.22 150.105 826.794 146.06C855.019 136.198 864.431 149.862 864.431 149.862C864.431 149.862 876.905 159.745 878.784 180.362C882.543 221.611 867.963 275.975 867.963 275.975" fill="#8DC240"/>
</g>
<g id="g102">
<path id="path104" d="M835.064 143.691C835.064 143.691 848.014 151.567 862.059 149.343C862.059 149.343 864.834 148.637 863.471 145.375C864.328 142.746 864.227 142.985 864.722 141.028C865.951 136.532 866.329 133.936 866.329 133.936L858.356 125.56L850.805 117.556C848.72 136.687 835.064 143.691 835.064 143.691Z" fill="#8DC240"/>
</g>
<g id="g106">
<path id="path108" d="M849.593 124.81C849.593 124.81 853.938 136.404 864.719 141.031C865.954 136.532 866.755 131.822 866.755 131.822L858.355 125.56L849.593 124.81Z" fill="#8DC240"/>
</g>
<g id="g110">
<path id="path112" d="M875.27 133.531C875.27 133.531 850.55 136.623 848.814 121.436C847.078 106.248 842.719 96.4191 858.426 93.8078C874.14 91.1909 877.871 96.6509 879.703 101.58C881.535 106.514 881.654 132.339 875.27 133.531Z" fill="#936B4F"/>
</g>
<g id="g114">
<path id="path116" d="M841.011 91.3358C840.793 91.0714 840.287 90.8473 839.148 90.7438C839.148 90.7438 840.08 90.2035 841.31 90.2207C841.603 88.64 842.558 85.8523 845.324 85.2718C845.324 85.2718 843.823 86.0018 843.564 87.6859C846.865 84.5475 853.754 82.4323 872.528 84.6338C897.271 87.525 888.49 103.102 885.207 104.872C881.918 106.643 874.029 101.148 868.025 101.395C862.022 101.648 860.556 110.247 858.48 111.356C856.404 112.465 857.284 110.402 854.582 109.057C851.885 107.712 851.453 112.253 852.132 115.242C852.811 118.23 848.895 121.99 848.895 121.99C848.895 121.99 848.895 121.99 845.232 117.736C841.575 113.488 838.636 95.9572 840.511 92.313C840.678 91.9911 840.839 91.6635 841.011 91.3358" fill="#1D2A49"/>
</g>
<g id="g118">
<path id="path120" d="M916.507 115.577L874.538 115.953L874.251 109.641L916.085 106.397L916.507 115.577Z" fill="#2A4E96"/>
</g>
<g id="g122">
<path id="path124" d="M948.188 116.626L902.494 117.287L901.973 105.815L947.539 102.288L948.188 116.626Z" fill="#2A4E96"/>
</g>
<g id="g126">
<path id="path128" d="M979.002 117.527L940.467 117.577L939.767 102.085L978.139 98.5916L979.002 117.527" fill="#233862"/>
</g>
<g id="g130">
<path id="path132" d="M979.547 120.143C980.738 120.093 981.659 119.084 981.603 117.894L980.7 97.9944C980.65 96.8102 979.641 95.8892 978.45 95.9456C977.266 95.9957 976.344 97.0045 976.394 98.1949L977.297 118.094C977.353 119.278 978.362 120.199 979.547 120.143Z" fill="#233862"/>
</g>
<g id="g134">
<path id="path136" d="M874.408 117.299C873.351 117.35 872.457 116.53 872.406 115.473L872.17 110.309C872.12 109.253 872.941 108.359 873.997 108.309C875.054 108.264 875.948 109.079 875.993 110.135L876.235 115.299C876.28 116.355 875.464 117.249 874.408 117.299" fill="#2A4E96"/>
</g>
<g id="g138">
<path id="path140" d="M792.505 266.061C795.612 256.015 802.862 236.893 800.677 194.488C800.476 190.543 800.582 186.832 800.964 183.36C810.255 182.565 824.452 192.6 824.452 192.6C824.452 192.6 815.712 245.895 792.505 266.061Z" fill="#8DC240"/>
</g>
<g id="g142">
<path id="path144" d="M835.063 143.693C835.063 143.693 811.244 147.788 798.82 162.949C786.395 178.106 766.414 199.486 761.689 206.968C756.963 214.456 743.849 265.399 743.849 265.399C743.849 265.399 744.709 267.036 748.328 267.988C751.789 268.903 754.308 267.485 754.308 267.485C754.308 267.485 771.682 237.758 778.22 222.908C780.941 216.733 827.929 192.299 845.599 194.828C852.542 195.824 835.063 143.693 835.063 143.693" fill="#8DC240"/>
</g>
<g id="g146">
<path id="path148" d="M916.256 104.588C916.256 104.588 921.385 107.721 924.448 106.398C927.51 105.069 927.237 103.859 927.237 103.859C927.237 103.859 917.978 101.289 916.256 104.588Z" fill="#936B4F"/>
</g>
<g id="g150">
<path id="path152" d="M858.181 160.303C858.181 160.303 847.725 226.271 773.556 245.478L765.48 261.407L779.668 263.808C779.668 263.808 864.105 239.357 862.968 159.133L858.181 160.303" fill="#BC3F3F"/>
</g>
<g id="g154">
<path id="path156" d="M856.555 149.774L853.126 150.106V155.062L858.173 160.301L862.97 159.138V152.26L859.519 149.774H856.555" fill="#A02E2E"/>
</g>
<g id="g158">
<path id="path160" d="M843.121 136.652C843.121 136.652 839.809 137.4 832.235 143.69C832.235 143.69 839.771 159.679 855.667 161.592C855.667 161.592 855.408 154.175 856.558 149.771C856.558 149.771 843.962 145.262 843.121 136.652" fill="#8DC240"/>
</g>
<g id="g162">
<path id="path164" d="M856.55 149.776C856.55 149.776 864.302 153.891 864.882 160.305C864.882 160.305 867.845 155.611 866.987 152.36C866.129 149.108 863.467 145.378 863.467 145.378C863.467 145.378 863.734 149.298 856.55 149.776" fill="#8DC240"/>
</g>
<path id="path166" d="M672.295 291.546C672.295 291.546 682.077 281.479 683.13 285.027C684.188 288.57 680.877 297.09 680.877 297.09L673.037 299.218L672.295 291.546" fill="#FFB27D"/>
<path id="path168" d="M673.037 299.218C673.037 299.218 646.113 327.395 633.886 326.246C627.456 325.642 618.04 322.826 610.393 319.709C603.487 316.884 598.019 313.817 597.478 311.894C596.828 309.578 595.894 293.881 595.211 280.834C594.703 271.033 594.327 262.733 594.327 262.733C594.327 262.733 631.628 306.497 637.385 303.54C643.137 300.587 672.295 291.546 672.295 291.546L673.037 299.218" fill="#2A4E96"/>
<path id="path170" d="M610.411 319.709H610.393C603.487 316.884 598.018 313.817 597.478 311.894C596.828 309.578 595.894 293.88 595.211 280.834C607.897 288.053 610.411 319.709 610.411 319.709Z" fill="#1E3D70"/>
<path id="path172" d="M563.896 254.685C563.896 254.685 574.104 267.292 587.522 262.371C587.522 262.371 590.522 255.5 590.664 250.4C590.682 249.768 590.705 249.16 590.723 248.583C590.906 242.838 591.167 239.615 591.167 239.615L591.154 239.61C590.554 239.349 570.967 230.853 570.971 231.526C570.999 247.077 563.896 254.685 563.896 254.685" fill="#FFB27D"/>
<path id="path174" d="M572.877 235.27C574.713 238.837 581.111 245.868 590.723 248.583C590.907 242.838 591.168 239.615 591.168 239.615L591.154 239.61C590.609 239.455 572.332 234.222 572.877 235.27" fill="#ED975D"/>
<path id="path176" d="M595.316 239.098C595.316 239.098 573.005 243.877 570.239 229.942C567.477 216.007 562.737 207.24 576.865 203.601C590.993 199.962 594.822 204.727 596.878 209.154C598.93 213.581 601.046 237.495 595.316 239.098Z" fill="#FFB27D"/>
<path id="path178" d="M570.926 233.737C570.619 233.929 565.81 235.298 557.118 217.101C555.753 214.244 554.906 208.106 558.327 202.763C561.743 197.421 573.568 193.402 583.364 191.744C593.155 190.087 595.385 195.622 597.574 201.184C599.873 207.021 606.742 211.924 606.742 211.924C598.238 216.456 588.236 209.534 584.706 210.568C581.175 211.603 579.824 217.11 579.526 218.877C579.228 220.644 578.793 222.109 574.411 220.438C570.028 218.767 572.29 226.65 572.968 228.166C572.968 228.166 573.49 232.167 570.926 233.737" fill="#A9453D"/>
<path id="path180" d="M511.034 591.225H497.584C494.767 591.225 491.63 588.405 490.847 583.237C490.064 578.068 484.266 575.248 483.016 571.018C481.757 566.788 488.186 560.837 488.186 560.837L489.258 559.455L490.375 558.017L501.032 560.521C501.032 560.521 501.293 563.057 501.458 566.289C501.573 568.62 501.637 571.316 501.504 573.683C501.188 579.322 503.084 585.393 508.094 586.491C513.109 587.585 511.034 591.225 511.034 591.225" fill="#2C3A64"/>
<path id="path182" d="M604.668 591.225H569.016C568.673 591.161 568.416 591.083 568.256 591.005C565.879 589.815 566.621 580.705 566.91 577.89C566.965 577.368 567.001 577.066 567.001 577.066C567.001 577.066 579.54 567.04 581.267 574.717C581.317 574.955 581.381 575.189 581.45 575.422V575.427C583.625 582.605 593.352 585.869 598.971 586.775C603.267 587.476 604.38 589.975 604.668 591.225" fill="#2C3A64"/>
<path id="path184" d="M597.478 385.712C597.478 385.712 595.578 409.457 593.338 438C590.297 476.774 586.638 524.398 586.276 533.42C585.654 549.09 583.144 574.149 583.144 574.149C583.144 574.149 577.191 580.105 565.279 577.592C565.279 577.592 554.664 541.821 551.632 503.967C551.586 503.349 551.536 502.721 551.49 502.099C548.669 463.563 544.282 382.42 544.282 382.42L597.478 385.712" fill="#8DC240"/>
<path id="path186" d="M597.478 385.712C597.478 385.712 595.578 409.457 593.338 438L551.632 503.967C551.586 503.349 551.536 502.721 551.49 502.099C548.669 463.563 544.282 382.42 544.282 382.42L597.478 385.712Z" fill="#6F9932"/>
<path id="path188" d="M588.786 388.532C588.786 388.532 554.467 474.527 531.903 514.94C509.339 555.353 502.287 566.633 502.287 566.633C502.287 566.633 489.359 561.464 488.186 557.939C488.186 557.939 496.814 479.919 511.922 460.898C520.463 450.154 530.492 417.903 530.964 406.624C531.436 395.344 534.019 373.022 534.019 373.022L588.786 388.532" fill="#8DC240"/>
<path id="path190" d="M605.951 306.772C605.671 314.073 605.094 322.272 604.361 330.595C604.357 330.654 604.352 330.705 604.343 330.76C604.297 331.259 604.247 331.758 604.201 332.252C603.958 334.93 603.711 337.613 603.445 340.277C603.198 342.776 602.942 345.267 602.672 347.725C602.447 349.762 602.209 351.767 601.966 353.74L601.925 354.006C601.898 354.752 601.788 355.553 601.696 356.276C599.448 375.279 597.185 390.281 596.814 390.514C596.37 390.789 595.88 390.926 595.344 390.844C590.362 390.12 575.437 390.963 563.287 388.07C553.043 385.694 544.254 381.409 534.967 375.668C533.74 374.904 530.942 372.894 531.193 371.443C531.459 369.841 531.926 367.538 532.512 364.636C533.218 361.156 534.097 356.812 535.022 351.781C535.915 346.851 536.845 341.261 537.66 335.173C538.443 329.45 539.121 323.298 539.602 316.825C539.881 313.034 540.266 309.29 540.737 305.609C541.974 296.028 543.833 286.931 546.251 278.874C550.73 263.9 559.179 254.255 566.978 249.897C568 249.356 571.283 251.146 576.197 254.433C580.735 257.478 584.266 258.787 588.983 258.471L594.328 262.733C599.237 268.666 604.426 276.535 605.662 287.595C605.754 288.415 605.836 289.284 605.896 290.205C606.207 294.709 606.193 300.399 605.951 306.772" fill="#2A4E96"/>
<path id="path192" d="M550.501 315.877C550.501 315.877 568.879 364.008 599.585 373.022L601.696 356.281L550.501 315.877" fill="#1E3D70"/>
<path id="path194" d="M604.361 330.595C604.357 330.654 604.352 330.705 604.343 330.76C604.297 331.259 604.247 331.758 604.201 332.252C603.958 334.93 603.711 337.613 603.445 340.277C601.536 341.197 599.983 341.778 599.983 341.778L583.492 313.016L584.417 308.978C584.417 308.978 592.967 325.815 604.361 330.595Z" fill="#1E3D70"/>
<path id="path196" d="M233.553 265.214C232.203 262.609 263.019 253.234 263.507 278.929C263.507 278.929 321.234 277.51 293.671 245.346C284.129 234.213 285.11 225.007 285.396 216.437C285.686 207.868 279.453 182.955 258.086 185.464C258.086 185.464 252.49 183.188 245.506 186.809C229.625 195.045 194.05 274.69 233.553 265.214" fill="#163560"/>
<path id="path198" d="M273.587 295.79C273.587 295.79 275.629 299.836 279.334 304.478C283.799 310.072 290.684 316.527 299.328 317.804C303.457 318.413 307.495 317.525 311.207 315.877L311.22 315.873C321.719 311.212 329.612 300.5 329.612 300.5C331.463 295.455 328.435 292.036 328.435 292.036C328.435 292.036 307.236 296.801 305.217 295.79C303.198 294.782 291.42 260.865 288.618 256.603C285.811 252.341 276.255 250.13 276.255 250.13L273.587 295.79Z" fill="#B0D0FF"/>
<path id="path200" d="M279.334 304.478C283.799 310.072 290.684 316.527 299.328 317.804C303.457 318.413 307.495 317.525 311.206 315.877C310.796 315.927 300.311 317.223 296.132 309.752C291.868 302.125 287.258 290.017 280.925 294.055C278.193 295.794 278.314 300.125 279.334 304.478" fill="#98BAF4"/>
<path id="path202" d="M194.497 524.535C194.497 524.535 188.028 530.436 189.291 534.629C190.553 538.822 196.39 541.619 197.179 546.742C197.968 551.869 201.123 554.662 203.963 554.662C206.803 554.662 217.502 554.662 217.502 554.662C217.502 554.662 219.593 551.054 214.544 549.969C209.495 548.884 207.592 542.86 207.908 537.27C208.223 531.681 207.434 524.223 207.434 524.223L196.706 521.742L194.497 524.535" fill="#233862"/>
<path id="path204" d="M249.247 527.043C249.247 527.043 246.92 552.039 249.76 553.439L286.104 553.362C286.104 553.362 286.104 549.168 280.266 548.239C274.429 547.305 264.174 543.89 262.438 536.282C260.703 528.673 249.247 527.043 249.247 527.043" fill="#233862"/>
<path id="path206" d="M223.348 347.693C230.827 330.929 235.403 326.118 234.53 320.913C233.879 317.04 236.509 248.697 236.509 248.697C237.397 248.423 239.175 248.18 240.148 247.96C243.216 247.283 245.755 245.127 246.812 242.169C248.085 238.608 249.097 233.343 249.073 226.751L250.031 226.939L266.14 230.125C266.14 230.125 265.773 235.193 265.762 239.967L265.762 240.086C265.742 244.234 268.463 247.892 272.449 249.041C274.483 249.631 276.253 250.13 276.253 250.13C276.253 250.13 282.168 267.013 283.299 284.354C284.428 301.695 272.542 309.23 283.388 343.884C294.461 379.28 219.216 356.959 223.348 347.693" fill="#FFB27D"/>
<path id="path208" d="M266.14 230.125C266.14 230.125 265.773 235.193 265.762 239.967C256.748 239.716 251.984 231.494 250.031 226.939L266.14 230.125Z" fill="#E8945B"/>
<path id="path210" d="M269.15 234.648C269.15 234.648 247.823 235 247.808 221.72C247.793 208.44 245.031 199.54 258.647 198.753C272.264 197.97 274.915 203.033 275.998 207.465C277.082 211.896 274.698 234.213 269.15 234.648" fill="#FFB27D"/>
<path id="path212" d="M268.361 198.428C268.361 198.428 262.521 214.011 253.56 216.314C244.598 218.616 240.711 216.217 240.711 216.217C240.711 216.217 247.585 210.756 249.012 201.23C249.012 201.23 263.956 191.012 268.361 198.428" fill="#163560"/>
<path id="path214" d="M266.914 199.696C266.914 199.696 271.244 201.312 273.025 204.471C274.768 207.556 276.253 211.644 275.909 216.661C275.909 216.661 280.308 206.073 275.364 200.081C270.122 193.726 266.914 199.696 266.914 199.696" fill="#163560"/>
<path id="path216" d="M264.51 226.408C264.51 226.408 265.981 228.344 268.926 228.207C271.297 228.092 272.212 226.037 272.212 226.037C272.212 226.037 267.855 224.989 264.51 226.408Z" fill="#EBF3FA"/>
<path id="path218" d="M221.29 278.929C221.29 278.929 226.333 275.661 226.875 284.821C227.235 290.891 227.793 309.926 228.665 311.936C230.852 316.98 233.319 317.804 233.319 317.804L252.401 322.478L259.111 324.122L280.269 317.804C280.269 317.804 289.906 290.914 286.037 275.78C282.167 260.641 276.255 250.13 276.255 250.13C276.255 250.13 258.99 267.032 236.509 248.697L221.29 278.929" fill="#B0D0FF"/>
<path id="path220" d="M270.429 318.637C270.429 318.637 245.259 294.361 241.231 282.711C241.231 282.711 247.582 316.504 256.728 320.148C265.875 323.792 270.429 318.637 270.429 318.637Z" fill="#98BAF4"/>
<path id="path222" d="M226.875 287.151C227.235 293.221 227.793 309.926 228.665 311.936C230.852 316.98 233.319 317.804 233.319 317.804L252.401 322.478L260.689 320.043C260.689 320.043 230.685 300.468 233.751 276.672L226.875 287.151Z" fill="#98BAF4"/>
<path id="path224" d="M278.924 321.883C278.924 321.883 289.402 354.487 290.075 365.588C290.748 376.689 270.045 523.271 269.212 528.385C268.427 533.21 262.438 536.282 262.438 536.282C262.438 536.282 259.684 537.907 255.753 536.794C250.298 535.256 248.574 533.411 248.574 533.411C248.574 533.411 240.419 428.872 245.466 391.526C250.513 354.18 250.572 321.883 250.572 321.883H278.924" fill="#8DC240"/>
<path id="path226" d="M234.53 320.913C234.53 320.913 218.546 342.351 217.056 356.844C215.566 371.333 214.718 422.234 211.544 436.361C208.37 450.493 196.706 477.676 196.706 521.742C196.706 521.742 197.918 524.265 201.662 525.611C202.859 526.041 204.462 526.457 206.02 526.815C209.107 527.524 212.274 526.013 213.683 523.18C221.569 507.308 246.687 456.124 247.974 445.498C248.886 437.977 256.817 388.211 274.116 359.009C278.27 352.001 271.567 324.122 271.567 324.122L234.53 320.913Z" fill="#8DC240"/>
<path id="path228" d="M264.983 226.765C264.983 226.765 265.353 228.33 269.247 228.088C269.247 228.088 272.517 227.886 272.417 226.165C272.417 226.165 269.246 224.943 264.983 226.765" fill="white"/>
<path id="path230" d="M280.597 316.852C280.597 316.852 276.391 320.18 268.034 320.345C258.053 320.546 233.32 317.804 233.32 317.804C233.32 317.804 232.221 320.871 232.265 324.113C232.265 324.113 262.473 331.73 279.976 325.225C279.976 325.225 282.233 320.981 280.597 316.852" fill="#233862"/>
<path id="path232" d="M267.385 323.792C267.385 325.802 268.75 327.436 270.429 327.436C272.108 327.436 273.474 325.802 273.474 323.792C273.474 321.782 272.108 320.148 270.429 320.148C268.75 320.148 267.385 321.782 267.385 323.792ZM265.875 323.792C265.875 320.949 267.918 318.638 270.429 318.638C272.94 318.638 274.984 320.949 274.984 323.792C274.984 326.635 272.94 328.947 270.429 328.947C267.918 328.947 265.875 326.635 265.875 323.792Z" fill="white"/>
<path id="path234" d="M328.453 293.29C328.453 293.29 338.235 283.223 339.29 286.771C340.345 290.314 337.037 298.834 337.037 298.834L329.196 300.962L328.453 293.29" fill="#FFB27D"/>
<path id="path236" d="M-15.1376 854.304V638.271C10.7674 601.827 47.3139 588.597 87.2405 588.597C110.706 588.597 135.338 593.17 159.652 600.289L267.985 703.217H463.095L448.413 735.518C420.926 742.701 393.009 747.746 369.175 747.746C353.769 747.75 340.073 745.64 329.292 740.645C298.309 726.285 216.071 674.088 135.689 656.834C144.347 643.275 140.452 625.073 126.946 616.261L126.365 615.881C121.417 612.649 115.833 611.106 110.305 611.106C100.649 611.106 91.1616 615.812 85.5181 624.455L67.2346 652.444C35.2077 656.409 6.371 670.664 -15.1376 700.924V769.188V854.304V854.304ZM369.175 773.111C357.566 773.111 346.931 771.917 337.777 769.188H410.457C395.986 771.651 381.989 773.111 369.175 773.111ZM525.203 710.39C525.954 708.024 526.389 705.62 526.522 703.217H543.036C537.577 705.501 531.596 707.909 525.203 710.39Z" fill="#5994EC"/>
<g id="g238">
<path id="path240" d="M752.347 723.858C748.329 723.858 744.142 723.176 739.686 721.684C728.109 717.811 714.937 710.487 699.765 703.217H793.372C779.042 715.005 766.818 723.854 752.347 723.858V723.858ZM1057.13 711.901C1057.13 711.901 952.584 655.544 885.592 655.544C874.196 655.544 863.898 657.173 855.383 660.986C844.937 665.656 835.769 670.998 827.531 676.546L893.48 593.134C960.466 597.144 1057.13 649.249 1057.13 649.249V711.901" fill="#5994EC"/>
</g>
<g id="g242">
<path id="path244" d="M58.797 504.461L494.41 548.747L994.969 464.78L806.439 703.217H267.986L58.797 504.461Z" fill="#F0F7FF"/>
</g>
<g id="g246">
<path id="path248" d="M793.373 703.217H699.766C678.166 692.88 652.504 682.657 621.592 682.657C602.024 682.657 580.358 686.755 556.28 697.508C552.33 699.27 547.887 701.193 543.037 703.217H526.524C527.198 691.401 520.672 679.778 509.286 674.61L508.653 674.321C504.724 672.536 500.594 671.693 496.527 671.693C485.295 671.693 474.506 678.13 469.572 688.975L463.096 703.217H267.986L494.413 548.746L798.258 699.17C796.603 700.552 794.972 701.903 793.373 703.217Z" fill="#DEEBFD"/>
</g>
<path id="path250" d="M58.7968 504.461L267.985 703.217L494.41 548.747L58.7968 504.461Z" fill="#CDE0FB"/>
<g id="g252">
<path id="path254" d="M1057.14 711.901C1057.14 711.901 914.016 634.755 855.383 660.986C796.751 687.213 778.133 734.548 739.686 721.684C701.226 708.816 645.117 657.823 556.28 697.508C507.122 719.464 382.562 765.334 329.292 740.646C276.021 715.958 71.2346 579.41 -15.1376 700.924V769.188H1057.14V711.901Z" fill="#5994EC"/>
</g>
<path id="path256" d="M100.736 658.551L97.6219 656.532L376.922 226.312L380.036 228.335L100.736 658.551" fill="#1E3D70"/>
<path id="path258" d="M87.4952 730.615L135.523 657.091C144.397 643.504 140.538 625.133 126.947 616.261L126.365 615.881C112.774 607.009 94.3926 610.868 85.5182 624.455L37.4912 697.98L87.4952 730.615Z" fill="#8DC240"/>
<path id="path260" d="M336.099 298.788C336.099 298.788 332.413 291.733 336.639 286.593C340.865 281.456 343.929 284.986 343.765 288.675C343.599 292.37 340.334 297.849 336.099 298.788" fill="#FFB27D"/>
<path id="path262" d="M292.9 339.087C293.623 338.995 294.471 338.386 295.339 338.057C295.984 337.809 296.981 337.773 296.981 337.773C296.981 337.773 296.488 338.89 296.108 339.801C298.019 340.052 300.708 340.776 304.144 343.545C304.832 344.099 305.295 344.905 305.368 345.784C305.434 346.599 305.177 347.437 303.877 347.524C301.278 347.702 302.231 347.276 298.577 347.601C294.922 347.926 291.359 346.608 290.033 344.315L287.605 342.456L289.605 337.896C289.605 337.896 291.22 338.524 292.9 339.087" fill="#FFB27D"/>
<path id="path264" d="M236.633 248.651C236.633 248.651 217.589 253.902 214.722 271.536C211.856 289.17 238.512 321.956 252.917 330.801C267.323 339.65 288.083 343.33 288.083 343.33C288.083 343.33 291.511 338.762 290.626 338.176C289.741 337.585 262.031 317.379 257.601 312.434C252.655 306.909 245.144 293.848 240.772 278.884C236.997 265.96 236.633 248.651 236.633 248.651" fill="#B0D0FF"/>
<path id="path266" d="M489.776 720.379L486.391 718.855L697.345 251.339L700.729 252.863L489.776 720.379" fill="#1E3D70"/>
<path id="path268" d="M487.6 793.616L523.939 713.673C530.658 698.9 524.063 681.321 509.285 674.61L508.653 674.322C493.874 667.611 476.289 674.203 469.57 688.975L433.231 768.918L487.6 793.616" fill="#8DC240"/>
<path id="path270" d="M680.987 296.989C680.987 296.989 677.3 289.934 681.527 284.798C685.754 279.657 688.818 283.191 688.653 286.881C688.488 290.575 685.223 296.055 680.987 296.989Z" fill="#FFB27D"/>
<path id="path272" d="M640.453 367.405C641.392 367.286 642.495 366.494 643.622 366.068C644.465 365.748 645.761 365.702 645.761 365.702C645.761 365.702 645.119 367.149 644.625 368.334C647.112 368.664 650.606 369.607 655.075 373.205C655.969 373.929 656.573 374.977 656.665 376.121C656.752 377.179 656.417 378.268 654.727 378.383C651.348 378.612 652.589 378.058 647.835 378.479C643.082 378.9 638.447 377.193 636.725 374.203L633.565 371.786L636.166 365.862C636.166 365.862 638.268 366.673 640.453 367.405" fill="#FFB27D"/>
<path id="path274" d="M567.28 249.8C567.28 249.8 542.514 256.626 538.786 279.561C535.058 302.491 569.721 345.129 588.456 356.634C607.191 368.138 634.188 372.926 634.188 372.926C634.188 372.926 638.644 366.989 637.495 366.22C636.345 365.455 601.156 336.766 595.394 330.334C583.41 316.948 567.28 249.8 567.28 249.8" fill="#2A4E96"/>
<g id="g276">
<path id="path278" d="M1057.14 854.304H-15.1376V769.188H337.777C346.931 771.917 357.565 773.111 369.175 773.111C381.989 773.111 395.985 771.651 410.457 769.188H433.822L487.6 793.616L498.705 769.188H1057.14V854.304Z" fill="#518FEB"/>
</g>
<g id="g280">
<path id="path282" d="M1057.14 769.188H498.705L511.565 740.893C529.32 734.383 544.84 727.979 556.28 722.869C580.355 712.116 602.021 708.024 621.589 708.024C674.235 708.024 711.652 737.665 739.686 747.045C744.142 748.537 748.329 749.22 752.347 749.22C782.986 749.22 803.542 709.535 855.383 686.347C863.898 682.534 874.196 680.909 885.592 680.909C952.584 680.909 1057.14 737.263 1057.14 737.263V769.188V769.188ZM433.822 769.188H410.457C418.668 767.788 427.025 766.066 435.42 764.102L433.231 768.918L433.822 769.188ZM337.777 769.188H-15.1376V726.289C2.02169 702.146 23.8508 688.192 48.2412 681.522L37.4913 697.98L87.4951 730.615L120.929 679.431C205.785 692.912 296.41 750.772 329.292 766.007C331.948 767.238 334.784 768.296 337.777 769.188" fill="#518FEB"/>
</g>
<path id="path284" d="M87.4952 730.615L37.4912 697.98L48.2413 681.523C60.6726 678.121 73.7615 676.615 87.2406 676.615C98.2664 676.615 109.544 677.622 120.93 679.431L87.4952 730.615Z" fill="#A19198"/>
<path id="path286" d="M487.6 793.616L433.822 769.188L433.231 768.918L435.42 764.102C461.872 757.908 488.594 749.311 511.565 740.893L498.706 769.188L487.6 793.616" fill="#A19198"/>
<g id="g288">
<path id="path290" d="M1057.14 811.592C1057.14 811.592 914.016 754.072 855.383 773.629C796.751 793.185 778.133 828.48 739.686 818.885C701.226 809.29 612.618 757.922 544.282 790.887C502.745 810.924 369.312 825.399 316.041 806.992C262.77 788.584 102.43 663.499 -15.1377 795.039V854.304H1057.14V811.592Z" fill="#498BEA"/>
</g>
</g>
</g>
</g>
<defs>
<clipPath id="clip0">
<rect width="1050" height="856" fill="white"/>
</clipPath>
</defs>
</svg>
